<svg xmlns="http://www.w3.org/2000/svg" xmlns:xlink="http://www.w3.org/1999/xlink" width="500" zoomAndPan="magnify" viewBox="0 0 375 374.999991" height="500" preserveAspectRatio="xMidYMid meet" version="1.0"><defs><g/><clipPath id="b6e0741b3d"><path d="M 135 105 L 305.96875 105 L 305.96875 169.652344 L 135 169.652344 Z M 135 105 " clip-rule="nonzero"/></clipPath><clipPath id="1e12d5cda4"><path d="M 68.539062 70.878906 L 210 70.878906 L 210 169.652344 L 68.539062 169.652344 Z M 68.539062 70.878906 " clip-rule="nonzero"/></clipPath><clipPath id="b9e9b08d25"><path d="M 135 215.421875 L 305.96875 215.421875 L 305.96875 304.695312 L 135 304.695312 Z M 135 215.421875 " clip-rule="nonzero"/></clipPath><clipPath id="c369d2b8ea"><path d="M 68.539062 215.421875 L 210 215.421875 L 210 288 L 68.539062 288 Z M 68.539062 215.421875 " clip-rule="nonzero"/></clipPath><clipPath id="70f24f975d"><path d="M 143.875 140.75 L 231.25 140.75 L 231.25 169.242188 L 143.875 169.242188 Z M 143.875 140.75 " clip-rule="nonzero"/></clipPath><clipPath id="05d22fac8f"><path d="M 143.875 211.675781 L 231.25 211.675781 L 231.25 239.871094 L 143.875 239.871094 Z M 143.875 211.675781 " clip-rule="nonzero"/></clipPath></defs><rect x="-37.5" width="450" fill="#ffffff" y="-37.499999" height="449.999989" fill-opacity="1"/><rect x="-37.5" width="450" fill="#ffffff" y="-37.499999" height="449.999989" fill-opacity="1"/><g clip-path="url(#b6e0741b3d)"><path fill="#5e17eb" d="M 242.828125 276.589844 L 258.292969 285.480469 C 267.742188 278.46875 276.109375 270.101562 283.113281 260.652344 L 274.226562 245.1875 C 280.621094 235.1875 285.324219 224.003906 287.953125 212.042969 L 305.179688 207.394531 C 306.019531 201.675781 306.46875 195.824219 306.46875 189.867188 C 306.46875 183.914062 306.019531 178.0625 305.179688 172.339844 L 287.953125 167.691406 C 285.324219 155.734375 280.621094 144.550781 274.226562 134.550781 L 281.011719 122.746094 C 265.03125 111.714844 245.660156 105.253906 224.773438 105.253906 C 212.203125 105.253906 200.183594 107.601562 189.117188 111.863281 C 231.46875 112.722656 265.53125 147.316406 265.53125 189.867188 C 265.53125 232.960938 230.597656 267.894531 187.507812 267.894531 C 167.71875 267.894531 149.65625 260.523438 135.902344 248.382812 C 149.523438 275.851562 175.496094 296.101562 206.566406 301.871094 L 209.683594 290.316406 C 221.640625 287.6875 232.824219 282.984375 242.828125 276.589844 " fill-opacity="1" fill-rule="nonzero"/></g><g clip-path="url(#1e12d5cda4)"><path fill="#38b6ff" d="M 107.347656 204.398438 C 107.347656 195.070312 108.441406 185.996094 110.496094 177.292969 C 112.292969 166.21875 116.414062 155.929688 122.351562 146.9375 C 140.074219 115.421875 171.910156 92.910156 209.296875 87.992188 L 205.035156 72.199219 C 199.316406 71.355469 193.460938 70.910156 187.507812 70.910156 C 181.550781 70.910156 175.699219 71.355469 169.980469 72.199219 L 165.332031 89.421875 C 153.371094 92.050781 142.1875 96.753906 132.1875 103.148438 L 116.722656 94.261719 C 107.277344 101.265625 98.902344 109.636719 91.898438 119.082031 L 100.785156 134.550781 C 94.394531 144.550781 89.691406 155.734375 87.0625 167.691406 L 69.839844 172.339844 C 68.992188 178.0625 68.550781 183.914062 68.550781 189.867188 C 68.550781 195.824219 68.992188 201.675781 69.839844 207.394531 L 87.0625 212.042969 C 89.691406 224.003906 94.394531 235.1875 100.785156 245.1875 L 91.898438 260.652344 C 98.902344 270.101562 107.277344 278.46875 116.722656 285.480469 L 132.167969 276.601562 C 116.617188 256.683594 107.347656 231.628906 107.347656 204.398438 " fill-opacity="1" fill-rule="nonzero"/></g><g clip-path="url(#b9e9b08d25)"><path fill="#5e17eb" d="M 242.828125 278.828125 L 258.292969 287.71875 C 267.742188 280.710938 276.109375 272.339844 283.113281 262.890625 L 274.226562 247.429688 C 280.621094 237.429688 285.324219 226.242188 287.953125 214.28125 L 305.179688 209.636719 C 306.019531 203.917969 306.46875 198.066406 306.46875 192.105469 C 306.46875 186.152344 306.019531 180.300781 305.179688 174.578125 L 287.953125 169.933594 C 285.324219 157.972656 280.621094 146.789062 274.226562 136.789062 L 281.011719 124.984375 C 265.03125 113.957031 245.660156 107.492188 224.773438 107.492188 C 212.203125 107.492188 200.183594 109.839844 189.117188 114.101562 C 231.46875 114.960938 265.53125 149.554688 265.53125 192.105469 C 265.53125 235.199219 230.597656 270.132812 187.507812 270.132812 C 167.71875 270.132812 149.65625 262.761719 135.902344 250.621094 C 149.523438 278.09375 175.496094 298.34375 206.566406 304.109375 L 209.683594 292.554688 C 221.640625 289.925781 232.824219 285.222656 242.828125 278.828125 " fill-opacity="1" fill-rule="nonzero"/></g><g clip-path="url(#c369d2b8ea)"><path fill="#38b6ff" d="M 107.347656 206.636719 C 107.347656 197.308594 108.441406 188.234375 110.496094 179.53125 C 112.292969 168.457031 116.414062 158.167969 122.351562 149.175781 C 140.074219 117.660156 171.910156 95.152344 209.296875 90.230469 L 205.035156 74.4375 C 199.316406 73.59375 193.460938 73.152344 187.507812 73.152344 C 181.550781 73.152344 175.699219 73.59375 169.980469 74.4375 L 165.332031 91.660156 C 153.371094 94.289062 142.1875 98.996094 132.1875 105.386719 L 116.722656 96.5 C 107.277344 103.503906 98.902344 111.875 91.898438 121.320312 L 100.785156 136.789062 C 94.394531 146.789062 89.691406 157.972656 87.0625 169.933594 L 69.839844 174.578125 C 68.992188 180.300781 68.550781 186.152344 68.550781 192.105469 C 68.550781 198.066406 68.992188 203.917969 69.839844 209.636719 L 87.0625 214.28125 C 89.691406 226.242188 94.394531 237.429688 100.785156 247.429688 L 91.898438 262.890625 C 98.902344 272.339844 107.277344 280.710938 116.722656 287.71875 L 132.167969 278.839844 C 116.617188 258.921875 107.347656 233.867188 107.347656 206.636719 " fill-opacity="1" fill-rule="nonzero"/></g><g clip-path="url(#70f24f975d)"><path fill="#5e17eb" d="M 187.488281 145.113281 C 209.132812 145.113281 226.742188 162.71875 226.742188 184.363281 C 226.742188 206.011719 209.132812 223.617188 187.488281 223.617188 C 165.84375 223.617188 148.238281 206.011719 148.238281 184.363281 C 148.238281 162.71875 165.84375 145.113281 187.488281 145.113281 M 187.488281 140.75 C 163.402344 140.75 143.875 160.277344 143.875 184.363281 C 143.875 208.453125 163.402344 227.976562 187.488281 227.976562 C 211.578125 227.976562 231.101562 208.453125 231.101562 184.363281 C 231.101562 160.277344 211.578125 140.75 187.488281 140.75 Z M 187.488281 140.75 " fill-opacity="1" fill-rule="nonzero"/></g><g clip-path="url(#05d22fac8f)"><path fill="#5ce1e6" d="M 187.488281 235.511719 C 209.132812 235.511719 226.742188 217.902344 226.742188 196.257812 C 226.742188 174.613281 209.132812 157.007812 187.488281 157.007812 C 165.84375 157.007812 148.238281 174.613281 148.238281 196.257812 C 148.238281 217.902344 165.84375 235.511719 187.488281 235.511719 M 187.488281 239.871094 C 163.402344 239.871094 143.875 220.34375 143.875 196.257812 C 143.875 172.171875 163.402344 152.644531 187.488281 152.644531 C 211.578125 152.644531 231.101562 172.171875 231.101562 196.257812 C 231.101562 220.34375 211.578125 239.871094 187.488281 239.871094 Z M 187.488281 239.871094 " fill-opacity="1" fill-rule="nonzero"/></g><g fill="#5e17eb" fill-opacity="1"><g transform="translate(86.382595, 203.561504)"><g><path d="M 7.246094 -14.160156 C 7.246094 -13.757812 7.304688 -13.613281 7.664062 -13.613281 L 10.242188 -13.613281 C 10.703125 -13.613281 10.804688 -13.757812 10.804688 -14.160156 L 10.804688 -14.980469 C 10.804688 -18.164062 8.671875 -20.238281 5.691406 -20.238281 C 3.671875 -20.238281 0.578125 -18.8125 0.578125 -15.066406 C 0.578125 -11.769531 1.929688 -10.816406 4.941406 -8.371094 C 6.710938 -6.929688 7.460938 -6.28125 7.460938 -4.882812 C 7.460938 -3.832031 6.726562 -3.167969 5.820312 -3.167969 C 5.085938 -3.167969 4.175781 -3.628906 4.175781 -5.070312 L 4.175781 -5.71875 C 4.175781 -6.152344 4.089844 -6.308594 3.6875 -6.308594 L 1.066406 -6.308594 C 0.664062 -6.308594 0.578125 -6.109375 0.578125 -5.617188 L 0.578125 -4.855469 C 0.578125 -2.144531 2.320312 0.316406 5.789062 0.316406 C 8.972656 0.316406 11.105469 -1.988281 11.105469 -4.683594 C 11.105469 -8.328125 8.960938 -9.894531 6.265625 -11.984375 C 4.984375 -12.980469 4.132812 -13.597656 4.132812 -14.96875 C 4.132812 -16.277344 4.96875 -16.78125 5.691406 -16.78125 C 6.726562 -16.78125 7.246094 -15.960938 7.246094 -14.96875 Z M 7.246094 -14.160156 "/></g></g></g><g fill="#5e17eb" fill-opacity="1"><g transform="translate(97.905513, 203.561504)"><g><path d="M 4.867188 -3.472656 L 4.867188 -8.355469 L 9.074219 -8.355469 C 9.347656 -8.355469 9.535156 -8.5 9.535156 -8.84375 L 9.535156 -11.308594 C 9.535156 -11.667969 9.320312 -11.8125 9.074219 -11.8125 L 4.867188 -11.8125 L 4.867188 -16.4375 L 10.140625 -16.4375 C 10.402344 -16.4375 10.542969 -16.609375 10.542969 -16.953125 L 10.542969 -19.402344 C 10.542969 -19.765625 10.402344 -19.9375 10.140625 -19.9375 L 1.527344 -19.9375 C 1.222656 -19.9375 1.039062 -19.722656 1.039062 -19.375 L 1.039062 -0.546875 C 1.039062 -0.203125 1.195312 0 1.527344 0 L 10.214844 0 C 10.445312 0 10.632812 -0.160156 10.632812 -0.503906 L 10.632812 -2.980469 C 10.632812 -3.3125 10.445312 -3.472656 10.214844 -3.472656 Z M 4.867188 -3.472656 "/></g></g></g><g fill="#5e17eb" fill-opacity="1"><g transform="translate(108.866689, 203.561504)"><g><path d="M 9.738281 0 C 9.996094 0 10.140625 -0.171875 10.140625 -0.519531 L 10.140625 -2.980469 C 10.140625 -3.328125 9.996094 -3.472656 9.738281 -3.472656 L 4.867188 -3.472656 L 4.867188 -19.375 C 4.867188 -19.722656 4.726562 -19.9375 4.394531 -19.9375 L 1.511719 -19.9375 C 1.195312 -19.9375 1.039062 -19.722656 1.039062 -19.375 L 1.039062 -0.546875 C 1.039062 -0.203125 1.195312 0 1.527344 0 Z M 9.738281 0 "/></g></g></g><g fill="#5e17eb" fill-opacity="1"><g transform="translate(119.323737, 203.561504)"><g><path d="M 7.664062 -5.113281 C 7.664062 -4.335938 7.117188 -3.472656 6.09375 -3.472656 L 4.59375 -3.472656 L 4.59375 -8.671875 L 6.019531 -8.671875 C 6.886719 -8.671875 7.664062 -8.097656 7.664062 -6.871094 Z M 7.535156 -13.308594 C 7.535156 -12.070312 6.496094 -11.769531 5.863281 -11.769531 L 4.59375 -11.769531 L 4.59375 -16.4375 L 5.90625 -16.4375 C 6.84375 -16.4375 7.535156 -15.917969 7.535156 -14.722656 Z M 11.179688 -14.9375 C 11.179688 -17.804688 9.117188 -19.9375 6.109375 -19.9375 L 1.527344 -19.9375 C 1.210938 -19.9375 1.039062 -19.722656 1.039062 -19.375 L 1.039062 -0.546875 C 1.039062 -0.203125 1.195312 0 1.527344 0 L 6.554688 0 C 9.117188 0 11.507812 -1.929688 11.507812 -4.738281 L 11.507812 -6.527344 C 11.507812 -9.019531 9.867188 -10.140625 9.0625 -10.355469 C 9.984375 -10.558594 11.179688 -11.898438 11.179688 -13.511719 Z M 11.179688 -14.9375 "/></g></g></g><g fill="#5e17eb" fill-opacity="1"><g transform="translate(131.149131, 203.561504)"><g><path d="M 4.867188 -3.472656 L 4.867188 -8.355469 L 9.074219 -8.355469 C 9.347656 -8.355469 9.535156 -8.5 9.535156 -8.84375 L 9.535156 -11.308594 C 9.535156 -11.667969 9.320312 -11.8125 9.074219 -11.8125 L 4.867188 -11.8125 L 4.867188 -16.4375 L 10.140625 -16.4375 C 10.402344 -16.4375 10.542969 -16.609375 10.542969 -16.953125 L 10.542969 -19.402344 C 10.542969 -19.765625 10.402344 -19.9375 10.140625 -19.9375 L 1.527344 -19.9375 C 1.222656 -19.9375 1.039062 -19.722656 1.039062 -19.375 L 1.039062 -0.546875 C 1.039062 -0.203125 1.195312 0 1.527344 0 L 10.214844 0 C 10.445312 0 10.632812 -0.160156 10.632812 -0.503906 L 10.632812 -2.980469 C 10.632812 -3.3125 10.445312 -3.472656 10.214844 -3.472656 Z M 4.867188 -3.472656 "/></g></g></g><g fill="#5e17eb" fill-opacity="1"><g transform="translate(142.110307, 203.561504)"><g/></g></g><g fill="#5e17eb" fill-opacity="1"><g transform="translate(148.793599, 203.561504)"><g><path d="M 4.867188 -19.375 C 4.867188 -19.722656 4.726562 -19.9375 4.394531 -19.9375 L 1.511719 -19.9375 C 1.210938 -19.9375 1.039062 -19.722656 1.039062 -19.375 L 1.039062 -0.546875 C 1.039062 -0.203125 1.179688 0 1.511719 0 L 4.394531 0 C 4.726562 0 4.867188 -0.203125 4.867188 -0.546875 Z M 4.867188 -19.375 "/></g></g></g><g fill="#5e17eb" fill-opacity="1"><g transform="translate(154.713498, 203.561504)"><g><path d="M 11.207031 0 C 11.523438 0 11.667969 -0.289062 11.667969 -0.578125 L 11.667969 -15.253906 C 11.667969 -18.019531 9.160156 -20.253906 6.28125 -20.253906 C 3.398438 -20.253906 0.90625 -18.019531 0.90625 -15.253906 L 0.90625 -0.5625 C 0.90625 -0.257812 1.066406 0 1.28125 0 L 4.320312 0 C 4.652344 0 4.753906 -0.246094 4.753906 -0.5625 L 4.753906 -15.039062 C 4.753906 -15.945312 5.316406 -16.769531 6.296875 -16.769531 C 7.261719 -16.769531 7.820312 -15.945312 7.820312 -15.039062 L 7.820312 -0.578125 C 7.820312 -0.273438 7.996094 0 8.28125 0 Z M 11.207031 0 "/></g></g></g><g fill="#5e17eb" fill-opacity="1"><g transform="translate(167.287882, 203.561504)"><g><path d="M 9.609375 -16.4375 C 9.851562 -16.4375 10.027344 -16.609375 10.027344 -16.953125 L 10.027344 -19.417969 C 10.027344 -19.765625 9.851562 -19.9375 9.609375 -19.9375 L 0.402344 -19.9375 C 0.160156 -19.9375 -0.015625 -19.75 -0.015625 -19.402344 L -0.015625 -16.953125 C -0.015625 -16.609375 0.160156 -16.4375 0.402344 -16.4375 L 3.082031 -16.4375 L 3.082031 -0.503906 C 3.082031 -0.171875 3.253906 0 3.5 0 L 6.511719 0 C 6.742188 0 6.929688 -0.171875 6.929688 -0.503906 L 6.929688 -16.4375 Z M 9.609375 -16.4375 "/></g></g></g><g fill="#5e17eb" fill-opacity="1"><g transform="translate(177.284014, 203.561504)"><g><path d="M 4.867188 -3.472656 L 4.867188 -8.355469 L 9.074219 -8.355469 C 9.347656 -8.355469 9.535156 -8.5 9.535156 -8.84375 L 9.535156 -11.308594 C 9.535156 -11.667969 9.320312 -11.8125 9.074219 -11.8125 L 4.867188 -11.8125 L 4.867188 -16.4375 L 10.140625 -16.4375 C 10.402344 -16.4375 10.542969 -16.609375 10.542969 -16.953125 L 10.542969 -19.402344 C 10.542969 -19.765625 10.402344 -19.9375 10.140625 -19.9375 L 1.527344 -19.9375 C 1.222656 -19.9375 1.039062 -19.722656 1.039062 -19.375 L 1.039062 -0.546875 C 1.039062 -0.203125 1.195312 0 1.527344 0 L 10.214844 0 C 10.445312 0 10.632812 -0.160156 10.632812 -0.503906 L 10.632812 -2.980469 C 10.632812 -3.3125 10.445312 -3.472656 10.214844 -3.472656 Z M 4.867188 -3.472656 "/></g></g></g><g fill="#5e17eb" fill-opacity="1"><g transform="translate(188.245189, 203.561504)"><g><path d="M 7.964844 -12.34375 C 7.964844 -11.367188 7.359375 -10.71875 6.207031 -10.71875 L 4.867188 -10.71875 L 4.867188 -16.4375 L 6.308594 -16.4375 C 7.304688 -16.4375 7.964844 -15.773438 7.964844 -14.738281 Z M 11.164062 -0.015625 C 11.554688 -0.015625 11.683594 -0.359375 11.683594 -0.621094 L 11.683594 -3.210938 C 11.683594 -6.09375 11.046875 -7.910156 9.753906 -9.003906 C 10.917969 -9.78125 11.8125 -10.960938 11.8125 -12.675781 L 11.8125 -14.738281 C 11.8125 -17.601562 9.578125 -19.9375 6.613281 -19.9375 L 1.527344 -19.9375 C 1.222656 -19.9375 1.039062 -19.722656 1.039062 -19.375 L 1.039062 -0.53125 C 1.039062 -0.203125 1.179688 0 1.511719 0 L 4.394531 0 C 4.710938 0 4.867188 -0.203125 4.867188 -0.53125 L 4.867188 -7.75 C 6.84375 -7.621094 7.851562 -6.453125 7.851562 -3.671875 L 7.851562 -0.664062 C 7.851562 -0.230469 8.183594 -0.015625 8.511719 -0.015625 Z M 11.164062 -0.015625 "/></g></g></g><g fill="#5e17eb" fill-opacity="1"><g transform="translate(200.833977, 203.561504)"><g><path d="M 4.753906 -15.039062 C 4.753906 -15.945312 5.316406 -16.769531 6.296875 -16.769531 C 7.261719 -16.769531 7.820312 -15.945312 7.820312 -15.039062 L 7.820312 -8.109375 L 4.753906 -8.109375 Z M 11.667969 -15.253906 C 11.667969 -18.019531 9.160156 -20.253906 6.28125 -20.253906 C 3.398438 -20.253906 0.90625 -18.019531 0.90625 -15.253906 L 0.90625 -0.5625 C 0.90625 -0.257812 1.066406 0 1.28125 0 L 4.320312 0 C 4.667969 0 4.753906 -0.246094 4.753906 -0.5625 L 4.753906 -4.753906 L 7.820312 -4.753906 L 7.820312 -0.578125 C 7.820312 -0.273438 7.996094 0 8.28125 0 L 11.207031 0 C 11.539062 0 11.667969 -0.289062 11.667969 -0.578125 Z M 11.667969 -15.253906 "/></g></g></g><g fill="#5e17eb" fill-opacity="1"><g transform="translate(213.408361, 203.561504)"><g><path d="M 11.191406 -15.167969 C 11.191406 -17.703125 9.59375 -20.238281 6.09375 -20.238281 C 2.953125 -20.238281 0.71875 -18.09375 0.71875 -15.242188 L 0.71875 -4.683594 C 0.71875 -1.554688 3.199219 0.316406 6.09375 0.316406 C 8.972656 0.316406 11.277344 -1.554688 11.277344 -4.683594 L 11.277344 -6.640625 C 11.277344 -7.074219 11.136719 -7.171875 10.804688 -7.171875 L 8.109375 -7.171875 C 7.777344 -7.171875 7.679688 -7.042969 7.679688 -6.613281 L 7.679688 -4.898438 C 7.679688 -3.992188 7.171875 -3.15625 6.121094 -3.15625 C 5.128906 -3.15625 4.550781 -3.992188 4.550781 -4.898438 L 4.550781 -15.082031 C 4.550781 -15.988281 5.1875 -16.78125 6.121094 -16.78125 C 7.074219 -16.78125 7.605469 -15.902344 7.605469 -15.054688 L 7.605469 -13.714844 C 7.605469 -13.308594 7.707031 -13.136719 8.050781 -13.136719 L 10.730469 -13.136719 C 11.105469 -13.136719 11.191406 -13.324219 11.191406 -13.769531 Z M 11.191406 -15.167969 "/></g></g></g><g fill="#5e17eb" fill-opacity="1"><g transform="translate(225.233756, 203.561504)"><g><path d="M 9.609375 -16.4375 C 9.851562 -16.4375 10.027344 -16.609375 10.027344 -16.953125 L 10.027344 -19.417969 C 10.027344 -19.765625 9.851562 -19.9375 9.609375 -19.9375 L 0.402344 -19.9375 C 0.160156 -19.9375 -0.015625 -19.75 -0.015625 -19.402344 L -0.015625 -16.953125 C -0.015625 -16.609375 0.160156 -16.4375 0.402344 -16.4375 L 3.082031 -16.4375 L 3.082031 -0.503906 C 3.082031 -0.171875 3.253906 0 3.5 0 L 6.511719 0 C 6.742188 0 6.929688 -0.171875 6.929688 -0.503906 L 6.929688 -16.4375 Z M 9.609375 -16.4375 "/></g></g></g><g fill="#5e17eb" fill-opacity="1"><g transform="translate(235.229887, 203.561504)"><g/></g></g><g fill="#5e17eb" fill-opacity="1"><g transform="translate(241.913179, 203.561504)"><g><path d="M 11.191406 -15.167969 C 11.191406 -17.703125 9.59375 -20.238281 6.09375 -20.238281 C 2.953125 -20.238281 0.71875 -18.09375 0.71875 -15.242188 L 0.71875 -4.683594 C 0.71875 -1.554688 3.199219 0.316406 6.09375 0.316406 C 8.972656 0.316406 11.277344 -1.554688 11.277344 -4.683594 L 11.277344 -6.640625 C 11.277344 -7.074219 11.136719 -7.171875 10.804688 -7.171875 L 8.109375 -7.171875 C 7.777344 -7.171875 7.679688 -7.042969 7.679688 -6.613281 L 7.679688 -4.898438 C 7.679688 -3.992188 7.171875 -3.15625 6.121094 -3.15625 C 5.128906 -3.15625 4.550781 -3.992188 4.550781 -4.898438 L 4.550781 -15.082031 C 4.550781 -15.988281 5.1875 -16.78125 6.121094 -16.78125 C 7.074219 -16.78125 7.605469 -15.902344 7.605469 -15.054688 L 7.605469 -13.714844 C 7.605469 -13.308594 7.707031 -13.136719 8.050781 -13.136719 L 10.730469 -13.136719 C 11.105469 -13.136719 11.191406 -13.324219 11.191406 -13.769531 Z M 11.191406 -15.167969 "/></g></g></g><g fill="#5e17eb" fill-opacity="1"><g transform="translate(253.738574, 203.561504)"><g><path d="M 9.738281 0 C 9.996094 0 10.140625 -0.171875 10.140625 -0.519531 L 10.140625 -2.980469 C 10.140625 -3.328125 9.996094 -3.472656 9.738281 -3.472656 L 4.867188 -3.472656 L 4.867188 -19.375 C 4.867188 -19.722656 4.726562 -19.9375 4.394531 -19.9375 L 1.511719 -19.9375 C 1.195312 -19.9375 1.039062 -19.722656 1.039062 -19.375 L 1.039062 -0.546875 C 1.039062 -0.203125 1.195312 0 1.527344 0 Z M 9.738281 0 "/></g></g></g><g fill="#5e17eb" fill-opacity="1"><g transform="translate(264.195622, 203.561504)"><g><path d="M 7.820312 -4.898438 C 7.820312 -3.992188 7.261719 -3.15625 6.296875 -3.15625 C 5.316406 -3.15625 4.753906 -3.992188 4.753906 -4.898438 L 4.753906 -19.375 C 4.753906 -19.675781 4.667969 -19.9375 4.320312 -19.9375 L 1.28125 -19.9375 C 1.082031 -19.9375 0.90625 -19.675781 0.90625 -19.375 L 0.90625 -4.683594 C 0.90625 -1.914062 3.398438 0.316406 6.28125 0.316406 C 9.160156 0.316406 11.667969 -1.914062 11.667969 -4.683594 L 11.667969 -19.359375 C 11.667969 -19.648438 11.523438 -19.9375 11.207031 -19.9375 L 8.28125 -19.9375 C 7.980469 -19.9375 7.820312 -19.664062 7.820312 -19.359375 Z M 7.820312 -4.898438 "/></g></g></g><g fill="#5e17eb" fill-opacity="1"><g transform="translate(276.770006, 203.561504)"><g><path d="M 7.664062 -5.113281 C 7.664062 -4.335938 7.117188 -3.472656 6.09375 -3.472656 L 4.59375 -3.472656 L 4.59375 -8.671875 L 6.019531 -8.671875 C 6.886719 -8.671875 7.664062 -8.097656 7.664062 -6.871094 Z M 7.535156 -13.308594 C 7.535156 -12.070312 6.496094 -11.769531 5.863281 -11.769531 L 4.59375 -11.769531 L 4.59375 -16.4375 L 5.90625 -16.4375 C 6.84375 -16.4375 7.535156 -15.917969 7.535156 -14.722656 Z M 11.179688 -14.9375 C 11.179688 -17.804688 9.117188 -19.9375 6.109375 -19.9375 L 1.527344 -19.9375 C 1.210938 -19.9375 1.039062 -19.722656 1.039062 -19.375 L 1.039062 -0.546875 C 1.039062 -0.203125 1.195312 0 1.527344 0 L 6.554688 0 C 9.117188 0 11.507812 -1.929688 11.507812 -4.738281 L 11.507812 -6.527344 C 11.507812 -9.019531 9.867188 -10.140625 9.0625 -10.355469 C 9.984375 -10.558594 11.179688 -11.898438 11.179688 -13.511719 Z M 11.179688 -14.9375 "/></g></g></g><g fill="#38b6ff" fill-opacity="1"><g transform="translate(167.832927, 134.683194)"><g><path d="M 1.464844 -8.921875 C 1.703125 -8.371094 1.523438 -7.855469 0.871094 -7.574219 L 0.117188 -7.242188 L -1.289062 -10.46875 L -0.476562 -10.824219 C 0.0859375 -11.066406 0.621094 -10.855469 0.875 -10.273438 Z M 6.296875 -2.75 C 6.515625 -2.84375 6.503906 -3.070312 6.441406 -3.21875 L 5.804688 -4.679688 C 5.097656 -6.308594 4.292969 -7.175781 3.292969 -7.476562 C 3.761719 -8.199219 3.972656 -9.085938 3.554688 -10.054688 L 3.046875 -11.214844 C 2.34375 -12.832031 0.511719 -13.601562 -1.164062 -12.875 L -4.035156 -11.625 C -4.203125 -11.550781 -4.257812 -11.382812 -4.171875 -11.1875 L 0.453125 -0.554688 C 0.535156 -0.367188 0.667969 -0.289062 0.855469 -0.371094 L 2.480469 -1.078125 C 2.65625 -1.15625 2.699219 -1.308594 2.617188 -1.496094 L 0.84375 -5.570312 C 1.988281 -5.980469 2.84375 -5.570312 3.527344 -4 L 4.265625 -2.300781 C 4.375 -2.058594 4.613281 -2.015625 4.800781 -2.097656 Z M 6.296875 -2.75 "/></g></g></g><g fill="#38b6ff" fill-opacity="1"><g transform="translate(174.238852, 131.837279)"><g><path d="M 4.644531 -10.785156 C 4.1875 -12.664062 2.417969 -13.410156 0.6875 -12.988281 C -1.035156 -12.566406 -2.246094 -11.085938 -1.789062 -9.21875 L -0.25 -2.902344 C 0.195312 -1.078125 1.957031 -0.277344 3.679688 -0.695312 C 5.414062 -1.117188 6.636719 -2.601562 6.183594 -4.472656 Z M 1.207031 -10.925781 C 1.785156 -11.066406 2.25 -10.648438 2.386719 -10.097656 L 3.875 -3.980469 C 4.007812 -3.441406 3.769531 -2.917969 3.175781 -2.773438 C 2.589844 -2.628906 2.144531 -3.039062 2.011719 -3.582031 L 0.535156 -9.648438 C 0.398438 -10.199219 0.621094 -10.78125 1.207031 -10.925781 Z M 1.207031 -10.925781 "/></g></g></g><g fill="#38b6ff" fill-opacity="1"><g transform="translate(180.884729, 130.218717)"><g><path d="M 5.027344 -10.582031 C 5.179688 -10.59375 5.277344 -10.710938 5.257812 -10.921875 L 5.128906 -12.433594 C 5.109375 -12.644531 4.996094 -12.742188 4.84375 -12.730469 L -0.800781 -12.246094 C -0.949219 -12.234375 -1.046875 -12.109375 -1.027344 -11.898438 L -0.898438 -10.394531 C -0.878906 -10.183594 -0.765625 -10.085938 -0.617188 -10.097656 L 1.027344 -10.238281 L 1.863281 -0.472656 C 1.882812 -0.269531 1.996094 -0.171875 2.144531 -0.183594 L 3.992188 -0.339844 C 4.132812 -0.355469 4.238281 -0.46875 4.222656 -0.671875 L 3.386719 -10.441406 Z M 5.027344 -10.582031 "/></g></g></g><g fill="#38b6ff" fill-opacity="1"><g transform="translate(186.337009, 129.636818)"><g><path d="M 3.574219 -9.023438 C 3.613281 -9.582031 3.992188 -10.0625 4.59375 -10.019531 C 5.1875 -9.976562 5.496094 -9.449219 5.457031 -8.890625 L 5.15625 -4.636719 L 3.269531 -4.773438 Z M 7.828125 -8.855469 C 7.945312 -10.554688 6.503906 -12.035156 4.738281 -12.160156 C 2.96875 -12.285156 1.339844 -11.023438 1.21875 -9.324219 L 0.582031 -0.304688 C 0.570312 -0.121094 0.65625 0.046875 0.785156 0.0546875 L 2.652344 0.1875 C 2.863281 0.203125 2.929688 0.0546875 2.941406 -0.136719 L 3.125 -2.710938 L 5.007812 -2.578125 L 4.828125 -0.0117188 C 4.8125 0.171875 4.90625 0.347656 5.085938 0.359375 L 6.878906 0.488281 C 7.082031 0.5 7.175781 0.332031 7.1875 0.152344 Z M 7.828125 -8.855469 "/></g></g></g><g fill="#38b6ff" fill-opacity="1"><g transform="translate(193.315234, 130.06483)"><g><path d="M 6.597656 -6.183594 C 6.453125 -5.597656 5.992188 -5.300781 5.304688 -5.472656 L 4.503906 -5.671875 L 5.359375 -9.085938 L 6.21875 -8.871094 C 6.8125 -8.722656 7.109375 -8.230469 6.953125 -7.609375 Z M 6.667969 1.65625 C 6.898438 1.714844 7.027344 1.527344 7.066406 1.371094 L 7.453125 -0.175781 C 7.882812 -1.894531 7.777344 -3.074219 7.164062 -3.921875 C 7.976562 -4.210938 8.6875 -4.785156 8.945312 -5.808594 L 9.25 -7.035156 C 9.679688 -8.75 8.691406 -10.472656 6.921875 -10.917969 L 3.886719 -11.675781 C 3.703125 -11.722656 3.5625 -11.621094 3.507812 -11.414062 L 0.699219 -0.164062 C 0.648438 0.0351562 0.707031 0.175781 0.902344 0.226562 L 2.625 0.65625 C 2.8125 0.703125 2.9375 0.605469 2.988281 0.40625 L 4.0625 -3.902344 C 5.222656 -3.527344 5.648438 -2.683594 5.234375 -1.023438 L 4.785156 0.773438 C 4.722656 1.035156 4.886719 1.210938 5.085938 1.261719 Z M 6.667969 1.65625 "/></g></g></g><g fill="#38b6ff" fill-opacity="1"><g transform="translate(200.132568, 131.720847)"><g><path d="M 6.433594 -2.554688 C 7.710938 -2.425781 8.960938 -2.992188 9.554688 -4.347656 L 11.265625 -8.234375 C 11.316406 -8.347656 11.28125 -8.441406 11.175781 -8.484375 L 9.355469 -9.285156 C 9.234375 -9.339844 9.144531 -9.285156 9.097656 -9.179688 L 7.417969 -5.363281 C 7.191406 -4.855469 6.703125 -4.574219 6.140625 -4.820312 C 5.582031 -5.070312 5.484375 -5.664062 5.710938 -6.175781 L 7.375 -9.957031 C 7.414062 -10.042969 7.378906 -10.15625 7.246094 -10.214844 L 5.460938 -11 C 5.339844 -11.054688 5.257812 -10.996094 5.210938 -10.890625 L 3.496094 -7.015625 C 2.914062 -5.691406 3.320312 -4.378906 4.277344 -3.511719 L 2.425781 0.691406 C 2.339844 0.894531 2.359375 1.039062 2.53125 1.113281 L 4.210938 1.855469 C 4.382812 1.929688 4.496094 1.84375 4.585938 1.640625 Z M 6.433594 -2.554688 "/></g></g></g><g fill="#38b6ff" fill-opacity="1"><g transform="translate(141.647983, 245.478383)"><g><path d="M 9.394531 -7.929688 C 9.519531 -8.101562 9.527344 -8.261719 9.359375 -8.378906 L 7.921875 -9.417969 C 7.769531 -9.523438 7.605469 -9.480469 7.480469 -9.304688 L 0.714844 0.0976562 C 0.589844 0.273438 0.589844 0.425781 0.753906 0.542969 L 2.195312 1.578125 C 2.359375 1.699219 2.503906 1.648438 2.628906 1.476562 Z M 9.394531 -7.929688 "/></g></g></g><g fill="#38b6ff" fill-opacity="1"><g transform="translate(144.876612, 247.888311)"><g><path d="M 5.921875 3.535156 C 6.089844 3.636719 6.257812 3.527344 6.347656 3.375 L 10.976562 -4.378906 C 11.851562 -5.84375 11.230469 -7.8125 9.707031 -8.722656 C 8.183594 -9.628906 6.164062 -9.234375 5.292969 -7.773438 L 0.65625 -0.0117188 C 0.5625 0.148438 0.5625 0.335938 0.675781 0.40625 L 2.285156 1.363281 C 2.457031 1.46875 2.589844 1.371094 2.6875 1.203125 L 7.257812 -6.449219 C 7.542969 -6.925781 8.097656 -7.183594 8.617188 -6.875 C 9.125 -6.570312 9.164062 -5.957031 8.878906 -5.480469 L 4.316406 2.164062 C 4.21875 2.324219 4.222656 2.523438 4.375 2.613281 Z M 5.921875 3.535156 "/></g></g></g><g fill="#38b6ff" fill-opacity="1"><g transform="translate(151.954363, 252.036152)"><g><path d="M 9.617188 -6.691406 C 9.753906 -6.628906 9.894531 -6.679688 9.984375 -6.875 L 10.621094 -8.25 C 10.710938 -8.441406 10.660156 -8.582031 10.523438 -8.644531 L 5.382812 -11.027344 C 5.246094 -11.089844 5.101562 -11.03125 5.011719 -10.839844 L 4.378906 -9.472656 C 4.289062 -9.277344 4.339844 -9.136719 4.476562 -9.074219 L 5.972656 -8.378906 L 1.851562 0.515625 C 1.765625 0.699219 1.816406 0.84375 1.953125 0.90625 L 3.636719 1.683594 C 3.765625 1.746094 3.914062 1.695312 4 1.511719 L 8.121094 -7.386719 Z M 9.617188 -6.691406 "/></g></g></g><g fill="#38b6ff" fill-opacity="1"><g transform="translate(157.932501, 254.798427)"><g><path d="M 3.535156 -1.023438 L 4.527344 -3.859375 L 6.972656 -3.003906 C 7.128906 -2.949219 7.269531 -2.996094 7.339844 -3.195312 L 7.839844 -4.625 C 7.914062 -4.835938 7.816406 -4.964844 7.675781 -5.011719 L 5.230469 -5.871094 L 6.171875 -8.554688 L 9.234375 -7.480469 C 9.386719 -7.429688 9.503906 -7.5 9.574219 -7.699219 L 10.074219 -9.121094 C 10.148438 -9.332031 10.097656 -9.460938 9.949219 -9.515625 L 4.945312 -11.269531 C 4.769531 -11.328125 4.617188 -11.242188 4.546875 -11.042969 L 0.714844 -0.105469 C 0.644531 0.09375 0.695312 0.242188 0.886719 0.3125 L 5.929688 2.078125 C 6.066406 2.125 6.207031 2.070312 6.277344 1.871094 L 6.78125 0.433594 C 6.847656 0.238281 6.773438 0.109375 6.636719 0.0625 Z M 3.535156 -1.023438 "/></g></g></g><g fill="#38b6ff" fill-opacity="1"><g transform="translate(164.760105, 257.193086)"><g><path d="M 6.496094 -6.289062 C 6.359375 -5.703125 5.90625 -5.398438 5.214844 -5.558594 L 4.410156 -5.746094 L 5.207031 -9.175781 L 6.070312 -8.972656 C 6.667969 -8.835938 6.972656 -8.347656 6.828125 -7.722656 Z M 6.695312 1.546875 C 6.925781 1.601562 7.054688 1.410156 7.089844 1.257812 L 7.449219 -0.296875 C 7.851562 -2.027344 7.722656 -3.203125 7.101562 -4.039062 C 7.90625 -4.34375 8.609375 -4.925781 8.847656 -5.953125 L 9.132812 -7.1875 C 9.53125 -8.90625 8.519531 -10.617188 6.742188 -11.03125 L 3.691406 -11.738281 C 3.511719 -11.78125 3.367188 -11.675781 3.320312 -11.46875 L 0.695312 -0.175781 C 0.648438 0.0234375 0.707031 0.164062 0.90625 0.210938 L 2.632812 0.613281 C 2.824219 0.65625 2.945312 0.558594 2.992188 0.359375 L 4 -3.96875 C 5.164062 -3.613281 5.605469 -2.773438 5.21875 -1.109375 L 4.796875 0.695312 C 4.738281 0.957031 4.90625 1.132812 5.105469 1.175781 Z M 6.695312 1.546875 "/></g></g></g><g fill="#38b6ff" fill-opacity="1"><g transform="translate(172.822129, 259.035466)"><g><path d="M 6.855469 0.769531 C 7.046875 0.792969 7.15625 0.625 7.175781 0.449219 L 8.183594 -8.527344 C 8.375 -10.21875 6.996094 -11.753906 5.234375 -11.953125 C 3.472656 -12.152344 1.796875 -10.957031 1.605469 -9.265625 L 0.59375 -0.28125 C 0.574219 -0.0976562 0.652344 0.0742188 0.785156 0.0898438 L 2.644531 0.296875 C 2.84375 0.320312 2.925781 0.175781 2.945312 -0.015625 L 3.941406 -8.871094 C 4.003906 -9.425781 4.40625 -9.886719 5.003906 -9.820312 C 5.59375 -9.753906 5.882812 -9.214844 5.820312 -8.660156 L 4.824219 0.1875 C 4.800781 0.371094 4.890625 0.550781 5.066406 0.570312 Z M 6.855469 0.769531 "/></g></g></g><g fill="#38b6ff" fill-opacity="1"><g transform="translate(181.03432, 259.929137)"><g><path d="M 2.886719 -9.265625 C 2.886719 -9.824219 3.230469 -10.332031 3.832031 -10.335938 C 4.425781 -10.335938 4.773438 -9.832031 4.777344 -9.273438 L 4.792969 -5.011719 L 2.90625 -5.003906 Z M 7.140625 -9.417969 C 7.136719 -11.121094 5.585938 -12.488281 3.8125 -12.480469 C 2.039062 -12.472656 0.511719 -11.09375 0.519531 -9.390625 L 0.558594 -0.347656 C 0.558594 -0.160156 0.65625 -0.00390625 0.789062 -0.00390625 L 2.660156 -0.0117188 C 2.871094 -0.0117188 2.925781 -0.164062 2.925781 -0.359375 L 2.914062 -2.9375 L 4.800781 -2.945312 L 4.8125 -0.375 C 4.8125 -0.1875 4.921875 -0.0195312 5.097656 -0.0195312 L 6.898438 -0.0273438 C 7.101562 -0.0273438 7.179688 -0.207031 7.179688 -0.382812 Z M 7.140625 -9.417969 "/></g></g></g><g fill="#38b6ff" fill-opacity="1"><g transform="translate(189.237591, 259.829927)"><g><path d="M 4.785156 -10.695312 C 4.933594 -10.710938 5.027344 -10.828125 5.003906 -11.039062 L 4.839844 -12.546875 C 4.816406 -12.757812 4.699219 -12.851562 4.550781 -12.835938 L -1.082031 -12.222656 C -1.230469 -12.207031 -1.324219 -12.082031 -1.300781 -11.871094 L -1.136719 -10.371094 C -1.113281 -10.160156 -0.996094 -10.066406 -0.847656 -10.082031 L 0.792969 -10.261719 L 1.851562 -0.515625 C 1.875 -0.3125 1.992188 -0.214844 2.140625 -0.234375 L 3.984375 -0.433594 C 4.125 -0.449219 4.226562 -0.566406 4.207031 -0.769531 L 3.144531 -10.515625 Z M 4.785156 -10.695312 "/></g></g></g><g fill="#38b6ff" fill-opacity="1"><g transform="translate(195.670937, 259.07114)"><g><path d="M 0.789062 -12.269531 C 0.75 -12.476562 0.640625 -12.59375 0.4375 -12.554688 L -1.304688 -12.234375 C -1.488281 -12.203125 -1.566406 -12.050781 -1.53125 -11.84375 L 0.566406 -0.445312 C 0.605469 -0.238281 0.714844 -0.132812 0.914062 -0.167969 L 2.660156 -0.488281 C 2.859375 -0.527344 2.925781 -0.664062 2.886719 -0.875 Z M 0.789062 -12.269531 "/></g></g></g><g fill="#38b6ff" fill-opacity="1"><g transform="translate(199.636657, 258.408623)"><g><path d="M 4.355469 -10.90625 C 3.847656 -12.769531 2.058594 -13.46875 0.339844 -13 C -1.371094 -12.535156 -2.539062 -11.023438 -2.035156 -9.167969 L -0.328125 -2.894531 C 0.164062 -1.082031 1.949219 -0.328125 3.660156 -0.792969 C 5.378906 -1.261719 6.566406 -2.777344 6.0625 -4.636719 Z M 0.914062 -10.953125 C 1.488281 -11.109375 1.964844 -10.707031 2.113281 -10.15625 L 3.765625 -4.085938 C 3.914062 -3.546875 3.691406 -3.015625 3.101562 -2.855469 C 2.519531 -2.695312 2.0625 -3.097656 1.914062 -3.636719 L 0.277344 -9.65625 C 0.125 -10.203125 0.335938 -10.792969 0.914062 -10.953125 Z M 0.914062 -10.953125 "/></g></g></g><g fill="#38b6ff" fill-opacity="1"><g transform="translate(207.371741, 256.280003)"><g><path d="M 6.40625 -2.558594 C 6.585938 -2.632812 6.601562 -2.828125 6.535156 -2.992188 L 3.183594 -11.382812 C 2.554688 -12.960938 0.613281 -13.667969 -1.035156 -13.007812 C -2.679688 -12.351562 -3.597656 -10.507812 -2.964844 -8.925781 L 0.390625 -0.527344 C 0.460938 -0.355469 0.609375 -0.242188 0.734375 -0.292969 L 2.46875 -0.988281 C 2.660156 -1.0625 2.660156 -1.226562 2.589844 -1.40625 L -0.71875 -9.679688 C -0.925781 -10.199219 -0.789062 -10.796875 -0.230469 -11.019531 C 0.320312 -11.238281 0.828125 -10.898438 1.035156 -10.378906 L 4.339844 -2.113281 C 4.40625 -1.941406 4.570312 -1.824219 4.734375 -1.890625 Z M 6.40625 -2.558594 "/></g></g></g><g fill="#38b6ff" fill-opacity="1"><g transform="translate(215.031587, 253.187252)"><g><path d="M -1.835938 -9.53125 C -2.101562 -10.023438 -2.035156 -10.632812 -1.507812 -10.917969 C -0.984375 -11.203125 -0.441406 -10.921875 -0.171875 -10.429688 L 1.855469 -6.679688 L 0.195312 -5.78125 Z M 1.84375 -11.675781 C 1.035156 -13.171875 -0.976562 -13.644531 -2.535156 -12.800781 C -4.09375 -11.957031 -4.789062 -10.019531 -3.980469 -8.523438 L 0.328125 -0.570312 C 0.414062 -0.40625 0.578125 -0.3125 0.695312 -0.375 L 2.339844 -1.265625 C 2.527344 -1.367188 2.5 -1.527344 2.40625 -1.695312 L 1.179688 -3.964844 L 2.839844 -4.863281 L 4.0625 -2.605469 C 4.152344 -2.441406 4.328125 -2.34375 4.484375 -2.425781 L 6.066406 -3.285156 C 6.246094 -3.382812 6.230469 -3.574219 6.144531 -3.730469 Z M 1.84375 -11.675781 "/></g></g></g><g fill="#38b6ff" fill-opacity="1"><g transform="translate(222.225882, 249.223581)"><g><path d="M 4.9375 -3.398438 C 5.070312 -3.488281 5.082031 -3.625 4.960938 -3.800781 L 4.101562 -5.050781 C 3.980469 -5.226562 3.859375 -5.246094 3.726562 -5.15625 L 1.257812 -3.457031 L -4.289062 -11.519531 C -4.410156 -11.695312 -4.558594 -11.757812 -4.726562 -11.640625 L -6.1875 -10.636719 C -6.347656 -10.523438 -6.351562 -10.359375 -6.234375 -10.183594 L 0.335938 -0.640625 C 0.457031 -0.464844 0.605469 -0.417969 0.773438 -0.53125 Z M 4.9375 -3.398438 "/></g></g></g></svg>